<svg width="137" height="210" viewBox="0 0 137 210" fill="none" xmlns="http://www.w3.org/2000/svg">
<g id="bunny">
<path id="body" d="M118.241 171.241C118.241 157.741 103.341 146.841 84.841 146.841C66.441 146.841 51.441 157.741 51.441 171.241L49.441 209.641H119.741L118.241 171.241Z" fill="#EFA9A7"/>
<g id="head">
<path id="Vector" d="M108.841 68.1407C112.541 59.8407 117.341 49.7407 118.841 46.9407C130.441 24.9407 141.241 8.44066 134.141 1.84066C129.141 -2.75934 122.741 1.74066 118.641 10.0407C114.541 18.3407 108.941 36.2407 105.541 46.4407C103.641 52.2407 101.041 59.6407 98.941 65.3407C84.641 62.6407 72.941 64.1407 66.341 65.6407C64.841 66.0407 62.741 66.8407 60.441 68.0407C50.041 58.8407 35.141 42.8407 26.341 33.9407C16.841 24.3407 5.14104 17.1407 1.04104 22.9407C-3.05896 28.8407 5.24103 39.6407 20.841 50.7407C32.141 58.7407 44.441 67.5407 52.341 73.2407C49.241 75.6407 46.441 78.5407 44.541 81.7407C38.141 92.5407 32.441 113.141 37.641 127.941C42.241 141.141 51.841 149.741 67.741 152.941C82.141 155.841 105.941 155.441 119.641 145.541C129.141 138.741 137.341 128.341 132.841 104.941C129.241 86.1407 121.141 73.6407 108.841 68.1407Z" fill="#F4C7C4"/>
<path id="Vector_2" d="M111.841 51.6137C113.241 48.1137 114.741 44.4137 115.541 42.5137C118.841 35.0137 123.141 26.1137 126.541 19.3137C127.941 16.5137 132.941 8.81371 129.741 6.41371C127.041 4.31371 124.541 8.51371 123.641 10.5137C122.841 12.2137 117.441 25.9137 116.141 29.8137C115.141 32.9137 111.341 43.0137 108.441 50.7137C109.641 50.9137 110.841 51.2137 111.841 51.6137Z" fill="white"/>
<path id="Vector_3" d="M42.0296 61.2942C42.9296 60.6942 43.9296 60.0942 44.8296 59.4942C38.8296 53.8942 31.1296 46.3942 27.4296 42.9942C20.5296 36.5942 9.3296 22.5942 5.9296 28.0942C3.3296 32.0942 11.3296 37.1942 24.6296 47.3942C28.7296 50.5942 36.2296 56.5942 42.0296 61.2942Z" fill="white"/>
</g>
<g id="features">
<g id="tounge">
<path d="M84.0298 137.542C84.0298 137.091 84.0234 136.588 84.1481 136.165C84.394 136.271 88.8028 135.767 88.8028 136.139C88.8028 136.335 88.8401 136.627 88.8795 136.805C88.9247 137.01 88.8423 137.298 88.8423 137.517C88.8423 137.748 88.9212 137.955 88.9212 138.18C88.9212 138.667 89.149 139.762 88.5 140.462C88.1596 140.829 87.6313 141.029 87 141C86.6881 140.986 86.3803 141.013 85 141C84.5 140.5 84.3255 140.218 84.2182 139.94C84.1805 139.843 84.163 139.8 84.1571 139.788C84.1364 139.746 84.2603 140.089 84.1571 139.788C84.1543 139.78 84.1513 139.771 84.1481 139.762C84.0668 139.525 84.0298 137.797 84.0298 137.542Z" fill="#DB1313"/>
<path d="M84.1481 136.165C84.0234 136.588 84.0298 137.091 84.0298 137.542C84.0298 137.797 84.0668 139.525 84.1481 139.762C84.3001 140.204 84.0441 139.49 84.2182 139.94C84.3255 140.218 84.5 140.5 85 141C86.3803 141.013 86.6881 140.986 87 141C87.6313 141.029 88.1596 140.829 88.5 140.462C89.149 139.762 88.9212 138.667 88.9212 138.18C88.9212 137.955 88.8423 137.748 88.8423 137.517C88.8423 137.298 88.9247 137.01 88.8795 136.805C88.8401 136.627 88.8028 136.335 88.8028 136.139C88.8028 135.767 84.394 136.271 84.1481 136.165Z" stroke="#DB1313" stroke-linecap="round" stroke-linejoin="round"/>
</g>
<path id="nose" d="M88.6201 131.941C87.7201 132.441 86.7201 132.841 85.6201 133.141C85.5201 129.241 85.3201 124.841 85.0201 121.641C86.8201 121.341 88.3201 120.341 90.1201 118.541C94.8201 113.841 92.2201 109.041 83.2201 109.041C74.2201 109.041 71.6201 113.841 76.3201 118.541C78.4201 120.641 79.6201 121.541 82.0201 121.741C82.2201 124.941 82.5201 129.441 82.6201 133.341C81.6201 133.241 80.6201 133.141 79.7201 132.841C78.9201 132.541 78.1201 133.041 77.8201 133.841C77.5201 134.641 78.0201 135.441 78.8201 135.741C80.2201 136.241 81.7201 136.441 83.2201 136.441C85.8201 136.441 88.2201 135.741 90.2201 134.641C90.5201 134.441 90.8201 134.141 90.9201 133.741C91.0201 133.341 90.9201 132.941 90.7201 132.641C90.3201 131.741 89.4201 131.441 88.6201 131.941Z" fill="black"/>
<path id="nose-unhappy" d="M90.8005 135.5C90.3005 135 88.7005 133 85.6005 133.1C85.5005 129.2 85.3005 124.8 85.0005 121.6C86.8005 121.3 88.3005 120.3 90.1005 118.5C94.8005 113.8 92.2005 109 83.2005 109C74.2005 109 71.6005 113.8 76.3005 118.5C78.4005 120.6 79.6005 121.5 82.0005 121.7C82.2005 124.9 82.5005 129.4 82.6005 133.3C81.6005 133.2 79.5042 134.796 79.3005 135C79.0967 135.204 77.6005 136.2 77.3005 137C77.0005 137.8 77.5005 138.2 78.3005 138.5C79.7005 139 81.3005 135.5 82.8005 135.5C83.3005 135.5 84.3005 135 86.3005 135.5C89.251 136.238 88.8005 137.5 89.8005 138C90.8005 138.5 91.8005 138 91.8005 137.5C91.8005 137 91.3005 136 90.8005 135.5Z" fill="black"/>
<path id="nose-flat" d="M89.7005 134.1C89.2005 134 88.7005 134 85.6005 134.1C85.5005 130.2 85.3005 125.8 85.0005 122.6C86.8005 122.3 88.3005 121.3 90.1005 119.5C94.8005 114.8 92.2005 110 83.2005 110C74.2005 110 71.6005 114.8 76.3005 119.5C78.4005 121.6 79.6005 122.5 82.0005 122.7C82.2005 125.9 82.5005 130.4 82.6005 134.3C81.6005 134.2 79.2005 134.3 79.2005 134.3C79.2005 134.3 77.5005 134.7 77.2005 135.5C76.9005 136.3 77.9005 137.2 78.7005 137.5C80.1005 138 81.7005 137.4 83.2005 137.4C85.8005 137.4 87.2005 137.5 89.2005 137.5C89.2005 137.5 91.1005 137.4 91.2005 137C91.3005 136.6 91.2005 136 91.2005 135.5C91.2005 135 90.2005 134.2 89.7005 134.1Z" fill="black"/>
<g id="eyes">
<path id="Vector_4" d="M68.8201 94.8407C66.8201 94.8407 65.2201 96.7407 65.2201 99.1407C65.2201 101.541 66.8201 103.441 68.8201 103.441C70.8201 103.441 72.4201 101.541 72.4201 99.1407C72.4201 96.7407 70.8201 94.8407 68.8201 94.8407Z" fill="black"/>
<path id="Vector_5" d="M98.0201 95.2407C96.0201 95.2407 94.4201 97.1407 94.4201 99.5407C94.4201 101.941 96.0201 103.841 98.0201 103.841C100.02 103.841 101.62 101.941 101.62 99.5407C101.62 97.1407 100.02 95.2407 98.0201 95.2407Z" fill="black"/>
</g>
<g id="eyes-blink">
<path id="eye-left" d="M97.9201 97.5642C95.9201 97.5642 94.4201 97.1642 94.4201 99.5642C94.4201 101.964 95.9201 101.564 97.9201 101.564C99.9201 101.564 101.62 101.964 101.62 99.5642C101.62 97.1642 99.9201 97.5642 97.9201 97.5642Z" fill="black"/>
<path id="eye-left_2" d="M68.7201 97.1407C66.7201 97.1407 65.2201 96.7407 65.2201 99.1407C65.2201 101.541 66.7201 101.141 68.7201 101.141C70.7201 101.141 72.4201 101.541 72.4201 99.1407C72.4201 96.7407 70.7201 97.1407 68.7201 97.1407Z" fill="black"/>
</g>
<g id="eyes-dead">
<g id="Group 5">
<path id="eye-left_3" d="M69.2422 99.1363C66.7393 97.3837 64.9187 95.9884 64.5788 96.4738C64.2389 96.9592 66.1728 98.1928 68.6758 99.9454C71.1787 101.698 73.2496 103.269 73.5895 102.783C73.9294 102.298 71.7452 100.889 69.2422 99.1363Z" fill="black"/>
<path id="eye-left_4" d="M68.3837 99.2473C65.8808 101 63.9469 102.233 64.2868 102.719C64.6267 103.204 66.4473 101.809 68.9502 100.056C71.4532 98.3038 73.6373 96.895 73.2974 96.4096C72.9576 95.9241 70.8867 97.4947 68.3837 99.2473Z" fill="black"/>
</g>
<g id="Group 4">
<path id="eye-left_5" d="M98.2422 99.1363C95.7393 97.3837 93.9187 95.9884 93.5788 96.4738C93.2389 96.9592 95.1728 98.1928 97.6758 99.9454C100.179 101.698 102.25 103.269 102.589 102.783C102.929 102.298 100.745 100.889 98.2422 99.1363Z" fill="black"/>
<path id="eye-left_6" d="M97.3837 99.2473C94.8808 101 92.9469 102.233 93.2868 102.719C93.6267 103.204 95.4473 101.809 97.9502 100.056C100.453 98.3038 102.637 96.895 102.297 96.4096C101.958 95.9241 99.8867 97.4947 97.3837 99.2473Z" fill="black"/>
</g>
</g>
<g id="cheeks">
<path id="Vector_6" d="M48.2201 114.041C46.8201 117.241 47.4201 120.441 49.1201 123.241C50.9201 126.041 54.2201 127.641 57.7201 127.541C59.9201 127.441 66.5201 125.541 66.6201 118.241C66.7201 114.341 64.8201 111.541 61.5201 109.641C59.9201 108.741 57.4201 108.141 55.2201 108.441C52.1201 108.841 49.5201 111.141 48.2201 114.041Z" fill="#EFA9A7"/>
<path id="Vector_7" d="M100.92 113.141C99.9201 114.841 99.52 118.841 100.22 120.941C101.42 124.241 104.22 127.441 108.32 127.641C112.32 127.841 116.62 125.441 118.22 121.641C119.72 117.841 120.12 111.041 112.12 108.541C108.92 107.541 103.92 108.141 100.92 113.141Z" fill="#EFA9A7"/>
</g>
</g>
</g>
</svg>
